<svg xmlns="http://www.w3.org/2000/svg" id="close" width="28.911" height="28.911" viewBox="0 0 28.911 28.911">
    <defs>
        <style>
            .cls-1{fill:#f1f1f1}.cls-2{fill:#bab8b8}
        </style>
    </defs>
    <path id="Path_6620" d="M14.456 0A14.456 14.456 0 1 1 0 14.456 14.456 14.456 0 0 1 14.456 0z" class="cls-1" data-name="Path 6620"/>
    <g id="miscellaneous_2_" data-name="miscellaneous (2)" transform="translate(9 8.665)">
        <path id="Path_6769" d="M14.965 1.857v-.464A1.4 1.4 0 0 0 13.572 0h-.929a1.4 1.4 0 0 0-1.393 1.393v.464H8v.929h10.215v-.929zm-2.786-.464a.465.465 0 0 1 .464-.464h.929a.465.465 0 0 1 .464.464v.464h-1.857z" class="cls-2" data-name="Path 6769" transform="translate(-8)"/>
        <path id="Path_6770" d="M18.467 62.654a1.392 1.392 0 0 0 1.384 1.239h4.839a1.392 1.392 0 0 0 1.384-1.239l.74-6.654h-9.086zm5.663-5.764l.925.077-.464 5.572-.925-.077zm-2.323.039h.929V62.5h-.929zm-1.395-.039l.464 5.572-.925.077-.464-5.572z" class="cls-2" data-name="Path 6770" transform="translate(-17.163 -52.75)"/>
    </g>
</svg>
