<svg xmlns="http://www.w3.org/2000/svg" width="17.983" height="16.982" viewBox="0 0 17.983 16.982">
    <defs>
        <style>
            .cls-1{fill:#878d92}
        </style>
    </defs>
    <g id="logout" transform="translate(9 -.004)">
        <path id="Path_6608" d="M10.614 9.2a.707.707 0 0 0-.708.708v2.83a.708.708 0 0 1-.708.708H7.076V2.834a1.426 1.426 0 0 0-.964-1.345l-.21-.07H9.2a.708.708 0 0 1 .708.708v2.122a.708.708 0 0 0 1.415 0V2.127A2.125 2.125 0 0 0 9.2 0H1.592a.556.556 0 0 0-.076.016C1.482.017 1.45 0 1.415 0A1.417 1.417 0 0 0 0 1.419v12.737A1.426 1.426 0 0 0 .964 15.5l4.258 1.42a1.465 1.465 0 0 0 .439.066 1.417 1.417 0 0 0 1.415-1.415v-.708H9.2a2.125 2.125 0 0 0 2.123-2.123V9.91a.707.707 0 0 0-.708-.708zm0 0" class="cls-1" data-name="Path 6608" transform="translate(-9)"/>
        <path id="Path_6609" d="M284.908 109.7l-2.83-2.83a.707.707 0 0 0-1.208.5v2.13h-2.83a.708.708 0 1 0 0 1.415h2.83v2.123a.707.707 0 0 0 1.208.5l2.83-2.83a.707.707 0 0 0 0-1.008zm0 0" class="cls-1" data-name="Path 6609" transform="translate(-276.133 -103.124)"/>
    </g>
</svg>
